<svg width="128" height="90" viewBox="0 0 128 90" fill="none" xmlns="http://www.w3.org/2000/svg">
<path d="M79.3013 62.6675C83.1688 68.9164 88.2004 73.5095 97.0994 73.5095C104.575 73.5095 109.351 69.8121 109.351 64.7032C109.351 58.581 104.444 56.4126 96.2156 52.8508L91.7051 50.9357C78.6857 45.4468 70.0366 38.5706 70.0366 24.0341C70.0366 10.6437 80.3467 0.450012 96.4594 0.450012C107.931 0.450012 116.178 4.4008 122.12 14.7452L108.071 23.6722C104.978 18.1833 101.64 16.021 96.4594 16.021C91.1749 16.021 87.8255 19.3384 87.8255 23.6722C87.8255 29.0284 91.1779 31.1968 98.9189 34.5143L103.429 36.4264C118.759 42.9316 127.414 49.5635 127.414 64.474C127.414 80.5486 114.654 89.3549 97.517 89.3549C80.7611 89.3549 69.936 81.4533 64.6392 71.0968L79.3013 62.6675ZM15.5665 64.2146C18.4008 69.1908 20.9791 73.398 27.1779 73.398C33.1055 73.398 36.845 71.1029 36.845 62.1789V1.46937H54.8869V62.4202C54.8869 80.9075 43.9337 89.3218 27.9459 89.3218C13.5002 89.3218 5.13448 81.9238 0.880005 73.0134L15.5665 64.2146Z" fill="black"/>
</svg>
